<svg width="86" height="86" viewBox="0 0 86 86" fill="none" xmlns="http://www.w3.org/2000/svg">
<path d="M31.82 36.55L52.3095 1.0535C49.321 0.387 46.2035 0 43 0C32.68 0 23.2415 3.6335 15.824 9.6965L31.5835 36.98L31.82 36.55ZM84.022 30.1C80.066 17.5225 70.477 7.482 58.2435 2.838L42.5055 30.1H84.022ZM85.14 34.4H52.933L54.18 36.55L74.6695 72.025C81.6785 64.371 86 54.2015 86 43C86 40.0545 85.699 37.1735 85.14 34.4ZM28.1005 43L11.3305 13.975C4.3215 21.629 0 31.7985 0 43C0 45.9455 0.301 48.8265 0.86 51.6H33.067L28.1005 43ZM1.978 55.9C5.934 68.4775 15.523 78.518 27.7565 83.162L43.4945 55.9H1.978ZM50.439 55.9L33.669 84.9465C36.679 85.613 39.7965 86 43 86C53.32 86 62.7585 82.3665 70.176 76.3035L54.4165 49.02L50.439 55.9Z" fill="#A0E9FF"/>
<path d="M31.82 36.55L52.3095 1.0535C49.321 0.387 46.2035 0 43 0C32.68 0 23.2415 3.6335 15.824 9.6965L31.5835 36.98L31.82 36.55ZM84.022 30.1C80.066 17.5225 70.477 7.482 58.2435 2.838L42.5055 30.1H84.022ZM85.14 34.4H52.933L54.18 36.55L74.6695 72.025C81.6785 64.371 86 54.2015 86 43C86 40.0545 85.699 37.1735 85.14 34.4ZM28.1005 43L11.3305 13.975C4.3215 21.629 0 31.7985 0 43C0 45.9455 0.301 48.8265 0.86 51.6H33.067L28.1005 43ZM1.978 55.9C5.934 68.4775 15.523 78.518 27.7565 83.162L43.4945 55.9H1.978ZM50.439 55.9L33.669 84.9465C36.679 85.613 39.7965 86 43 86C53.32 86 62.7585 82.3665 70.176 76.3035L54.4165 49.02L50.439 55.9Z" fill="url(#paint0_linear_2_4)" fill-opacity="0.2"/>
<defs>
<linearGradient id="paint0_linear_2_4" x1="8" y1="99" x2="78" y2="10" gradientUnits="userSpaceOnUse">
<stop/>
<stop offset="1" stop-opacity="0"/>
</linearGradient>
</defs>
</svg>
