<svg width="320" height="86" viewBox="0 0 320 86" fill="none" xmlns="http://www.w3.org/2000/svg">
<path d="M114.023 18.4545V65H105.591V18.4545H114.023ZM131.017 44.5455V65H122.79V30.0909H130.653V36.0227H131.062C131.866 34.0682 133.146 32.5152 134.903 31.3636C136.676 30.2121 138.866 29.6364 141.472 29.6364C143.881 29.6364 145.979 30.1515 147.767 31.1818C149.57 32.2121 150.964 33.7045 151.949 35.6591C152.949 37.6136 153.441 39.9848 153.426 42.7727V65H145.199V44.0455C145.199 41.7121 144.593 39.8864 143.381 38.5682C142.184 37.25 140.525 36.5909 138.403 36.5909C136.964 36.5909 135.684 36.9091 134.562 37.5455C133.456 38.1667 132.585 39.0682 131.949 40.25C131.328 41.4318 131.017 42.8636 131.017 44.5455ZM189.381 39.3182L181.881 40.1364C181.669 39.3788 181.297 38.6667 180.767 38C180.252 37.3333 179.555 36.7955 178.676 36.3864C177.797 35.9773 176.722 35.7727 175.449 35.7727C173.737 35.7727 172.297 36.1439 171.131 36.8864C169.979 37.6288 169.411 38.5909 169.426 39.7727C169.411 40.7879 169.782 41.6136 170.54 42.25C171.313 42.8864 172.585 43.4091 174.358 43.8182L180.312 45.0909C183.616 45.803 186.07 46.9318 187.676 48.4773C189.297 50.0227 190.116 52.0455 190.131 54.5455C190.116 56.7424 189.472 58.6818 188.199 60.3636C186.941 62.0303 185.191 63.3333 182.949 64.2727C180.706 65.2121 178.131 65.6818 175.222 65.6818C170.949 65.6818 167.509 64.7879 164.903 63C162.297 61.197 160.744 58.6894 160.244 55.4773L168.267 54.7045C168.631 56.2803 169.403 57.4697 170.585 58.2727C171.767 59.0758 173.305 59.4773 175.199 59.4773C177.153 59.4773 178.722 59.0758 179.903 58.2727C181.1 57.4697 181.699 56.4773 181.699 55.2955C181.699 54.2955 181.313 53.4697 180.54 52.8182C179.782 52.1667 178.6 51.6667 176.994 51.3182L171.04 50.0682C167.691 49.3712 165.214 48.197 163.608 46.5455C162.002 44.8788 161.206 42.7727 161.222 40.2273C161.206 38.0758 161.79 36.2121 162.972 34.6364C164.169 33.0455 165.828 31.8182 167.949 30.9545C170.085 30.0758 172.547 29.6364 175.335 29.6364C179.426 29.6364 182.646 30.5076 184.994 32.25C187.358 33.9924 188.82 36.3485 189.381 39.3182ZM214.347 30.0909V36.4545H194.278V30.0909H214.347ZM199.233 21.7273H207.46V54.5C207.46 55.6061 207.627 56.4545 207.96 57.0455C208.309 57.6212 208.763 58.0152 209.324 58.2273C209.884 58.4394 210.506 58.5455 211.188 58.5455C211.703 58.5455 212.172 58.5076 212.597 58.4318C213.036 58.3561 213.369 58.2879 213.597 58.2273L214.983 64.6591C214.544 64.8106 213.915 64.9773 213.097 65.1591C212.294 65.3409 211.309 65.447 210.142 65.4773C208.081 65.5379 206.225 65.2273 204.574 64.5455C202.922 63.8485 201.612 62.7727 200.642 61.3182C199.688 59.8636 199.218 58.0455 199.233 55.8636V21.7273ZM231.273 65.7045C229.061 65.7045 227.068 65.3106 225.295 64.5227C223.538 63.7197 222.144 62.5379 221.114 60.9773C220.098 59.4167 219.591 57.4924 219.591 55.2045C219.591 53.2348 219.955 51.6061 220.682 50.3182C221.409 49.0303 222.402 48 223.659 47.2273C224.917 46.4545 226.333 45.8712 227.909 45.4773C229.5 45.0682 231.144 44.7727 232.841 44.5909C234.886 44.3788 236.545 44.1894 237.818 44.0227C239.091 43.8409 240.015 43.5682 240.591 43.2045C241.182 42.8258 241.477 42.2424 241.477 41.4545V41.3182C241.477 39.6061 240.97 38.2803 239.955 37.3409C238.939 36.4015 237.477 35.9318 235.568 35.9318C233.553 35.9318 231.955 36.3712 230.773 37.25C229.606 38.1288 228.818 39.1667 228.409 40.3636L220.727 39.2727C221.333 37.1515 222.333 35.3788 223.727 33.9545C225.121 32.5151 226.826 31.4394 228.841 30.7273C230.856 30 233.083 29.6364 235.523 29.6364C237.205 29.6364 238.879 29.8333 240.545 30.2273C242.212 30.6212 243.735 31.2727 245.114 32.1818C246.492 33.0758 247.598 34.2955 248.432 35.8409C249.28 37.3864 249.705 39.3182 249.705 41.6364V65H241.795V60.2045H241.523C241.023 61.1742 240.318 62.0833 239.409 62.9318C238.515 63.7652 237.386 64.4394 236.023 64.9545C234.674 65.4545 233.091 65.7045 231.273 65.7045ZM233.409 59.6591C235.061 59.6591 236.492 59.3333 237.705 58.6818C238.917 58.0152 239.848 57.1364 240.5 56.0455C241.167 54.9545 241.5 53.7652 241.5 52.4773V48.3636C241.242 48.5758 240.803 48.7727 240.182 48.9545C239.576 49.1364 238.894 49.2955 238.136 49.4318C237.379 49.5682 236.629 49.6894 235.886 49.7955C235.144 49.9015 234.5 49.9924 233.955 50.0682C232.727 50.2348 231.629 50.5076 230.659 50.8864C229.689 51.2652 228.924 51.7955 228.364 52.4773C227.803 53.1439 227.523 54.0076 227.523 55.0682C227.523 56.5833 228.076 57.7273 229.182 58.5C230.288 59.2727 231.697 59.6591 233.409 59.6591ZM266.205 44.5455V65H257.977V30.0909H265.841V36.0227H266.25C267.053 34.0682 268.333 32.5152 270.091 31.3636C271.864 30.2121 274.053 29.6364 276.659 29.6364C279.068 29.6364 281.167 30.1515 282.955 31.1818C284.758 32.2121 286.152 33.7045 287.136 35.6591C288.136 37.6136 288.629 39.9848 288.614 42.7727V65H280.386V44.0455C280.386 41.7121 279.78 39.8864 278.568 38.5682C277.371 37.25 275.712 36.5909 273.591 36.5909C272.152 36.5909 270.871 36.9091 269.75 37.5455C268.644 38.1667 267.773 39.0682 267.136 40.25C266.515 41.4318 266.205 42.8636 266.205 44.5455ZM314.409 30.0909V36.4545H294.341V30.0909H314.409ZM299.295 21.7273H307.523V54.5C307.523 55.6061 307.689 56.4545 308.023 57.0455C308.371 57.6212 308.826 58.0152 309.386 58.2273C309.947 58.4394 310.568 58.5455 311.25 58.5455C311.765 58.5455 312.235 58.5076 312.659 58.4318C313.098 58.3561 313.432 58.2879 313.659 58.2273L315.045 64.6591C314.606 64.8106 313.977 64.9773 313.159 65.1591C312.356 65.3409 311.371 65.447 310.205 65.4773C308.144 65.5379 306.288 65.2273 304.636 64.5455C302.985 63.8485 301.674 62.7727 300.705 61.3182C299.75 59.8636 299.28 58.0455 299.295 55.8636V21.7273Z" fill="#171717"/>
<path d="M31.82 36.55L52.3095 1.0535C49.321 0.387 46.2035 0 43 0C32.68 0 23.2415 3.6335 15.824 9.6965L31.5835 36.98L31.82 36.55ZM84.022 30.1C80.066 17.5225 70.477 7.482 58.2435 2.838L42.5055 30.1H84.022ZM85.14 34.4H52.933L54.18 36.55L74.6695 72.025C81.6785 64.371 86 54.2015 86 43C86 40.0545 85.699 37.1735 85.14 34.4ZM28.1005 43L11.3305 13.975C4.3215 21.629 0 31.7985 0 43C0 45.9455 0.301 48.8265 0.86 51.6H33.067L28.1005 43ZM1.978 55.9C5.934 68.4775 15.523 78.518 27.7565 83.162L43.4945 55.9H1.978ZM50.439 55.9L33.669 84.9465C36.679 85.613 39.7965 86 43 86C53.32 86 62.7585 82.3665 70.176 76.3035L54.4165 49.02L50.439 55.9Z" fill="#A0E9FF"/>
<path d="M31.82 36.55L52.3095 1.0535C49.321 0.387 46.2035 0 43 0C32.68 0 23.2415 3.6335 15.824 9.6965L31.5835 36.98L31.82 36.55ZM84.022 30.1C80.066 17.5225 70.477 7.482 58.2435 2.838L42.5055 30.1H84.022ZM85.14 34.4H52.933L54.18 36.55L74.6695 72.025C81.6785 64.371 86 54.2015 86 43C86 40.0545 85.699 37.1735 85.14 34.4ZM28.1005 43L11.3305 13.975C4.3215 21.629 0 31.7985 0 43C0 45.9455 0.301 48.8265 0.86 51.6H33.067L28.1005 43ZM1.978 55.9C5.934 68.4775 15.523 78.518 27.7565 83.162L43.4945 55.9H1.978ZM50.439 55.9L33.669 84.9465C36.679 85.613 39.7965 86 43 86C53.32 86 62.7585 82.3665 70.176 76.3035L54.4165 49.02L50.439 55.9Z" fill="url(#paint0_linear_3_22)" fill-opacity="0.2"/>
<defs>
<linearGradient id="paint0_linear_3_22" x1="8" y1="99" x2="78" y2="10" gradientUnits="userSpaceOnUse">
<stop/>
<stop offset="1" stop-opacity="0"/>
</linearGradient>
</defs>
</svg>
